<svg width="205" height="189" viewBox="0 0 205 189" fill="none" xmlns="http://www.w3.org/2000/svg">
<path d="M167.31 47.1704C166.572 44.8155 165.371 42.633 163.78 40.7518C162.188 38.8706 160.238 37.3288 158.044 36.2172C158.044 35.5294 158.044 34.8342 158.007 34.1316C157.219 21.4108 147.445 11.8185 136.176 12.6838C129.736 13.1941 124.208 17.0103 120.793 22.5646C118.055 15.1688 111.394 10.2727 103.945 10.857C94.5899 11.5966 87.5313 20.7526 88.1864 31.3138C88.1864 31.5135 88.1864 31.7132 88.2379 31.9129C86.3186 30.0907 83.7829 29.0679 81.1425 29.0507C74.9598 29.0507 69.9474 34.7085 69.9474 41.6827C69.9437 43.3465 70.2379 44.9974 70.8159 46.5566C56.4926 43.3172 45.1577 55.4315 47.1818 65.8596H191.246C191.246 65.8596 189.281 44.715 167.31 47.1483" fill="#2EE3FF"/>
<path fill-rule="evenodd" clip-rule="evenodd" d="M113.219 25.7448L101.391 25.2715L120.108 0L139.076 26.4474L127.712 26.0776V51.963H113.219V25.7448Z" fill="#5351FD"/>
<path d="M101.197 59.7029L94.8975 182.125L197.724 187.468L204.024 65.0455L101.197 59.7029Z" fill="#F2F2F2"/>
<path d="M109.867 68.013L105.158 159.525L190.814 163.975L195.523 72.4634L109.867 68.013Z" fill="#2EE3FF"/>
<path fill-rule="evenodd" clip-rule="evenodd" d="M101.31 145.498C101.31 145.498 122.346 109.717 128.124 110.641C135.19 111.773 144.405 141.926 144.405 141.926C144.405 141.926 154.01 124.02 160.406 124.79C168.503 125.766 195.559 168.965 195.559 168.965L98.9839 162.516L101.31 145.498Z" fill="#5351FD"/>
<path d="M165.801 109.199C172.33 109.199 177.622 103.881 177.622 97.3215C177.622 90.7617 172.33 85.4438 165.801 85.4438C159.273 85.4438 153.98 90.7617 153.98 97.3215C153.98 103.881 159.273 109.199 165.801 109.199Z" fill="#5351FD"/>
<path d="M46.8833 36.0587L0 149.231L95.0576 188.99L141.941 75.8179L46.8833 36.0587Z" fill="#F2F2F2"/>
<path d="M50.8849 46.3224L15.8391 130.92L95.0232 164.04L130.069 79.4423L50.8849 46.3224Z" fill="#2EE3FF"/>
<path fill-rule="evenodd" clip-rule="evenodd" d="M16.9232 116.432C16.9232 116.432 48.698 89.8074 53.8355 92.6622C60.1139 96.116 58.7081 127.622 58.7081 127.622C58.7081 127.622 73.7379 114.007 79.5085 116.891C86.832 120.552 97.8284 170.37 97.8284 170.37L9.04028 131.675L16.9232 116.432Z" fill="#5351FD"/>
<path d="M93.7802 104.725C100.309 104.725 105.601 99.4068 105.601 92.8469C105.601 86.2871 100.309 80.9692 93.7802 80.9692C87.2518 80.9692 81.9595 86.2871 81.9595 92.8469C81.9595 99.4068 87.2518 104.725 93.7802 104.725Z" fill="#5351FD"/>
</svg>
